<svg width="80" height="15" viewBox="0 0 80 15" fill="none" xmlns="http://www.w3.org/2000/svg">
<g id="Group">
<g id="Zadarma">
<path d="M10.7868 2.42302C10.7868 2.71323 10.7173 2.98452 10.5785 3.23688C10.4396 3.47662 10.2882 3.69743 10.1241 3.89932L3.95144 11.3943L3.98931 11.5268H10.5027C10.6416 11.5268 10.73 11.5521 10.7678 11.6025C10.8183 11.653 10.8436 11.7666 10.8436 11.9432V13.5899C10.8436 13.7413 10.8183 13.8485 10.7678 13.9116C10.73 13.9621 10.6416 13.9873 10.5027 13.9873H1.24383C0.87776 13.9873 0.600055 13.9116 0.410711 13.7602C0.23399 13.5962 0.14563 13.3312 0.14563 12.9653V12.511C0.14563 12.2082 0.196122 11.9495 0.297105 11.735C0.410712 11.5079 0.562187 11.2808 0.751531 11.0537L7.15136 3.29366L7.13242 3.1801H1.37637C1.13653 3.1801 1.01661 3.04761 1.01661 2.78263V1.136C1.01661 0.959348 1.03555 0.845787 1.07342 0.795316C1.12391 0.744844 1.22489 0.719608 1.37637 0.719608H9.6507C10.0546 0.719608 10.345 0.795316 10.5217 0.946731C10.6984 1.09814 10.7868 1.38205 10.7868 1.79844V2.42302Z" fill="#A61F23"/>
<path d="M20.9717 12.7571C20.9717 12.9211 20.9464 13.0599 20.896 13.1735C20.8581 13.287 20.7508 13.3943 20.5741 13.4952C20.2837 13.634 19.9682 13.7476 19.6274 13.8359C19.2992 13.9242 18.9583 13.9936 18.6049 14.0441C18.2641 14.0946 17.9169 14.1324 17.5635 14.1577C17.2101 14.1829 16.8756 14.1955 16.56 14.1955C15.7016 14.1955 14.9884 14.1135 14.4204 13.9495C13.865 13.7854 13.4169 13.5646 13.076 13.287C12.7352 12.9968 12.4954 12.6624 12.3565 12.2839C12.2177 11.8927 12.1483 11.4764 12.1483 11.0347C12.1483 10.5426 12.2303 10.0947 12.3944 9.69093C12.5585 9.27454 12.8047 8.91493 13.1329 8.6121C13.461 8.30927 13.8713 8.07584 14.3636 7.9118C14.8685 7.73515 15.4618 7.64683 16.1434 7.64683H18.2262V7.344C18.2262 7.16735 18.2073 6.99701 18.1694 6.83297C18.1315 6.66894 18.0495 6.53015 17.9233 6.41658C17.8097 6.29041 17.6456 6.18946 17.431 6.11376C17.2164 6.03805 16.9324 6.00019 16.5789 6.00019C16.3896 6.00019 16.175 6.01281 15.9351 6.03805C15.6953 6.05067 15.4555 6.0759 15.2156 6.11376C14.9758 6.13899 14.7423 6.17684 14.5151 6.22732C14.2879 6.26517 14.0859 6.30933 13.9092 6.3598C13.7451 6.39766 13.6315 6.39766 13.5683 6.3598C13.5052 6.32195 13.461 6.23993 13.4358 6.11376L13.1329 4.78888C13.095 4.65008 13.0887 4.55545 13.1139 4.50497C13.1518 4.44188 13.2212 4.39141 13.3222 4.35356C13.8902 4.15167 14.4835 4.00657 15.102 3.91824C15.7332 3.82992 16.358 3.78575 16.9765 3.78575C18.3524 3.78575 19.3623 4.08227 20.006 4.67532C20.6498 5.25574 20.9717 6.12006 20.9717 7.26829V12.7571ZM18.2073 9.48273H16.7115C16.5347 9.48273 16.3454 9.49535 16.1434 9.52058C15.9415 9.54582 15.7521 9.60891 15.5754 9.70985C15.4113 9.79818 15.2724 9.93067 15.1588 10.1073C15.0452 10.284 14.9884 10.5237 14.9884 10.8265C14.9884 11.2682 15.1336 11.5773 15.4239 11.754C15.7269 11.9306 16.1308 12.0189 16.6357 12.0189C16.7115 12.0189 16.8124 12.0189 16.9387 12.0189C17.0649 12.0063 17.1974 11.9937 17.3363 11.9811C17.4878 11.9558 17.6392 11.9306 17.7907 11.9054C17.9422 11.8675 18.081 11.8233 18.2073 11.7729V9.48273Z" fill="#A61F23"/>
<path d="M22.8684 9.10419C22.8684 8.39759 22.9567 7.72254 23.1335 7.07902C23.3102 6.43551 23.5816 5.87402 23.9476 5.39454C24.3137 4.90244 24.7871 4.51759 25.3677 4.24C25.9484 3.94979 26.6363 3.80468 27.4316 3.80468C27.7598 3.80468 28.0753 3.8173 28.3783 3.84254C28.6939 3.86777 29.0473 3.92455 29.4386 4.01288V0.549267C29.4386 0.397852 29.4639 0.296909 29.5144 0.246438C29.5775 0.195966 29.6911 0.170731 29.8552 0.170731H31.7865C31.9253 0.170731 32.0263 0.195966 32.0894 0.246438C32.1652 0.284291 32.203 0.385234 32.203 0.549267V12.2082C32.203 12.347 32.203 12.4921 32.203 12.6435C32.203 12.7823 32.1904 12.9211 32.1652 13.0599C32.1526 13.1987 32.0579 13.3249 31.8812 13.4384C31.7044 13.552 31.4772 13.6529 31.1995 13.7413C30.9344 13.817 30.6315 13.8864 30.2907 13.9495C29.9625 14.0126 29.6343 14.0567 29.3061 14.082C28.9779 14.1198 28.6686 14.145 28.3783 14.1577C28.088 14.1829 27.8481 14.1955 27.6588 14.1955C26.7499 14.1955 25.9863 14.0693 25.3677 13.817C24.7618 13.5646 24.2695 13.2113 23.8908 12.7571C23.5248 12.3028 23.2597 11.7666 23.0956 11.1483C22.9441 10.53 22.8684 9.84865 22.8684 9.10419ZM25.7275 9.14205C25.7275 10.1515 25.9231 10.8581 26.3144 11.2619C26.7184 11.6656 27.2738 11.8675 27.9807 11.8675C28.1574 11.8675 28.3909 11.8486 28.6812 11.8107C28.9842 11.7729 29.2367 11.7161 29.4386 11.6404V6.3598C29.1104 6.2841 28.8201 6.23363 28.5676 6.20839C28.3152 6.18315 28.088 6.17054 27.886 6.17054C27.2422 6.17054 26.7184 6.40397 26.3144 6.87083C25.9231 7.33769 25.7275 8.09476 25.7275 9.14205Z" fill="#A61F23"/>
<path d="M42.9297 12.7571C42.9297 12.9211 42.9044 13.0599 42.8539 13.1735C42.8161 13.287 42.7088 13.3943 42.5321 13.4952C42.2417 13.634 41.9262 13.7476 41.5853 13.8359C41.2571 13.9242 40.9163 13.9936 40.5629 14.0441C40.2221 14.0946 39.8749 14.1324 39.5215 14.1577C39.168 14.1829 38.8335 14.1955 38.518 14.1955C37.6596 14.1955 36.9464 14.1135 36.3784 13.9495C35.823 13.7854 35.3749 13.5646 35.034 13.287C34.6932 12.9968 34.4534 12.6624 34.3145 12.2839C34.1757 11.8927 34.1063 11.4764 34.1063 11.0347C34.1063 10.5426 34.1883 10.0947 34.3524 9.69093C34.5165 9.27454 34.7626 8.91493 35.0908 8.6121C35.419 8.30927 35.8293 8.07584 36.3216 7.9118C36.8265 7.73515 37.4198 7.64683 38.1014 7.64683H40.1842V7.344C40.1842 7.16735 40.1653 6.99701 40.1274 6.83297C40.0895 6.66894 40.0075 6.53015 39.8812 6.41658C39.7676 6.29041 39.6035 6.18946 39.3889 6.11376C39.1744 6.03805 38.8903 6.00019 38.5369 6.00019C38.3476 6.00019 38.133 6.01281 37.8931 6.03805C37.6533 6.05067 37.4135 6.0759 37.1736 6.11376C36.9338 6.13899 36.7003 6.17684 36.473 6.22732C36.2458 6.26517 36.0439 6.30933 35.8671 6.3598C35.703 6.39766 35.5894 6.39766 35.5263 6.3598C35.4632 6.32195 35.419 6.23993 35.3938 6.11376L35.0908 4.78888C35.053 4.65008 35.0467 4.55545 35.0719 4.50497C35.1098 4.44188 35.1792 4.39141 35.2802 4.35356C35.8482 4.15167 36.4415 4.00657 37.06 3.91824C37.6912 3.82992 38.316 3.78575 38.9345 3.78575C40.3104 3.78575 41.3203 4.08227 41.964 4.67532C42.6078 5.25574 42.9297 6.12006 42.9297 7.26829V12.7571ZM40.1653 9.48273H38.6694C38.4927 9.48273 38.3034 9.49535 38.1014 9.52058C37.8994 9.54582 37.7101 9.60891 37.5334 9.70985C37.3693 9.79818 37.2304 9.93067 37.1168 10.1073C37.0032 10.284 36.9464 10.5237 36.9464 10.8265C36.9464 11.2682 37.0916 11.5773 37.3819 11.754C37.6848 11.9306 38.0888 12.0189 38.5937 12.0189C38.6694 12.0189 38.7704 12.0189 38.8967 12.0189C39.0229 12.0063 39.1554 11.9937 39.2943 11.9811C39.4457 11.9558 39.5972 11.9306 39.7487 11.9054C39.9002 11.8675 40.039 11.8233 40.1653 11.7729V9.48273Z" fill="#A61F23"/>
<path d="M48.0831 13.6466C48.0831 13.798 48.0578 13.8927 48.0074 13.9305C47.9569 13.9684 47.8433 13.9873 47.6665 13.9873H45.7352C45.5964 13.9873 45.4954 13.9684 45.4323 13.9305C45.3692 13.8801 45.3376 13.7854 45.3376 13.6466V5.5838C45.3376 5.09171 45.4197 4.71948 45.5837 4.46712C45.7605 4.20215 46.1265 4.02549 46.6819 3.93717C46.9092 3.91193 47.1427 3.89301 47.3825 3.88039C47.6224 3.85515 47.8685 3.84254 48.121 3.84254C48.9541 3.84254 49.7746 3.94979 50.5824 4.16429C51.4029 4.3788 52.1287 4.71948 52.7599 5.18634C52.8609 5.26205 52.9051 5.33775 52.8924 5.41346C52.8924 5.47655 52.8735 5.54595 52.8356 5.62166L51.851 7.19258C51.7753 7.31876 51.7059 7.37554 51.6428 7.36293C51.5796 7.35031 51.4787 7.29984 51.3398 7.21151C50.9864 6.94654 50.6077 6.73203 50.2037 6.568C49.7998 6.39135 49.3454 6.29671 48.8405 6.2841C48.5754 6.2841 48.3229 6.30302 48.0831 6.34088V13.6466Z" fill="#A61F23"/>
<path d="M56.5997 13.6466C56.5997 13.7854 56.5745 13.8801 56.524 13.9305C56.4861 13.9684 56.3788 13.9873 56.2021 13.9873H54.2519C54.113 13.9873 54.012 13.9684 53.9489 13.9305C53.8858 13.8801 53.8542 13.7854 53.8542 13.6466V5.56488C53.8542 5.13587 53.9237 4.79519 54.0625 4.54283C54.2014 4.29047 54.5233 4.10751 55.0282 3.99395C55.1418 3.96871 55.2996 3.94979 55.5015 3.93717C55.7161 3.91193 55.9433 3.89301 56.1832 3.88039C56.4356 3.85515 56.6881 3.83623 56.9405 3.82361C57.193 3.81099 57.4076 3.80468 57.5843 3.80468C58.3669 3.80468 59.0423 3.87408 59.6103 4.01288C60.1909 4.15167 60.6959 4.3788 61.125 4.69424C61.5416 4.41665 62.0465 4.19584 62.6398 4.0318C63.2457 3.86777 63.8516 3.78575 64.4575 3.78575C65.278 3.78575 65.9786 3.89932 66.5592 4.12644C67.1399 4.35356 67.6132 4.67532 67.9793 5.09171C68.3454 5.5081 68.6104 6.0065 68.7745 6.58693C68.9513 7.15473 69.0396 7.77932 69.0396 8.46068V13.6466C69.0396 13.7854 69.0144 13.8801 68.9639 13.9305C68.9134 13.9684 68.7998 13.9873 68.6231 13.9873H66.6918C66.5529 13.9873 66.4519 13.9684 66.3888 13.9305C66.3257 13.8801 66.2941 13.7854 66.2941 13.6466V8.78244C66.2941 7.92442 66.1427 7.26829 65.8397 6.81405C65.5368 6.3598 64.975 6.13268 64.1545 6.13268C63.9147 6.13268 63.6181 6.16423 63.2646 6.22732C62.9238 6.2904 62.6524 6.37242 62.4505 6.47336C62.5641 6.78881 62.6398 7.12949 62.6777 7.49541C62.7282 7.84871 62.7534 8.23356 62.7534 8.64995V13.6466C62.7534 13.7854 62.7282 13.8801 62.6777 13.9305C62.6272 13.9684 62.5136 13.9873 62.3368 13.9873H60.3866C60.2477 13.9873 60.1468 13.9684 60.0837 13.9305C60.0205 13.8801 59.989 13.7854 59.989 13.6466V8.53639C59.989 8.14524 59.9574 7.79824 59.8943 7.49541C59.8312 7.19258 59.7176 6.94023 59.5535 6.73834C59.402 6.52384 59.1811 6.3598 58.8908 6.24624C58.6131 6.13268 58.2533 6.0759 57.8115 6.0759C57.6727 6.0759 57.477 6.08221 57.2246 6.09483C56.9847 6.10745 56.7764 6.13268 56.5997 6.17054V13.6466Z" fill="#A61F23"/>
<path d="M79.9449 12.7571C79.9449 12.9211 79.9196 13.0599 79.8692 13.1735C79.8313 13.287 79.724 13.3943 79.5473 13.4952C79.2569 13.634 78.9414 13.7476 78.6005 13.8359C78.2723 13.9242 77.9315 13.9936 77.5781 14.0441C77.2373 14.0946 76.8901 14.1324 76.5367 14.1577C76.1833 14.1829 75.8487 14.1955 75.5332 14.1955C74.6748 14.1955 73.9616 14.1135 73.3936 13.9495C72.8382 13.7854 72.3901 13.5646 72.0492 13.287C71.7084 12.9968 71.4686 12.6624 71.3297 12.2839C71.1909 11.8927 71.1215 11.4764 71.1215 11.0347C71.1215 10.5426 71.2035 10.0947 71.3676 9.69093C71.5317 9.27454 71.7779 8.91493 72.106 8.6121C72.4342 8.30927 72.8445 8.07584 73.3368 7.9118C73.8417 7.73515 74.435 7.64683 75.1166 7.64683H77.1994V7.344C77.1994 7.16735 77.1805 6.99701 77.1426 6.83297C77.1047 6.66894 77.0227 6.53015 76.8965 6.41658C76.7828 6.29041 76.6188 6.18946 76.4042 6.11376C76.1896 6.03805 75.9055 6.00019 75.5521 6.00019C75.3628 6.00019 75.1482 6.01281 74.9083 6.03805C74.6685 6.05067 74.4287 6.0759 74.1888 6.11376C73.949 6.13899 73.7155 6.17684 73.4883 6.22732C73.261 6.26517 73.0591 6.30933 72.8824 6.3598C72.7183 6.39766 72.6047 6.39766 72.5415 6.3598C72.4784 6.32195 72.4342 6.23993 72.409 6.11376L72.106 4.78888C72.0682 4.65008 72.0619 4.55545 72.0871 4.50497C72.125 4.44188 72.1944 4.39141 72.2954 4.35356C72.8634 4.15167 73.4567 4.00657 74.0752 3.91824C74.7064 3.82992 75.3312 3.78575 75.9497 3.78575C77.3256 3.78575 78.3355 4.08227 78.9792 4.67532C79.623 5.25574 79.9449 6.12006 79.9449 7.26829V12.7571ZM77.1805 9.48273H75.6847C75.5079 9.48273 75.3186 9.49535 75.1166 9.52058C74.9146 9.54582 74.7253 9.60891 74.5486 9.70985C74.3845 9.79818 74.2456 9.93067 74.132 10.1073C74.0184 10.284 73.9616 10.5237 73.9616 10.8265C73.9616 11.2682 74.1068 11.5773 74.3971 11.754C74.7001 11.9306 75.104 12.0189 75.6089 12.0189C75.6847 12.0189 75.7856 12.0189 75.9119 12.0189C76.0381 12.0063 76.1706 11.9937 76.3095 11.9811C76.461 11.9558 76.6124 11.9306 76.7639 11.9054C76.9154 11.8675 77.0542 11.8233 77.1805 11.7729V9.48273Z" fill="#A61F23"/>
</g>
</g>
</svg>
