<svg width="33" height="32" viewBox="0 0 33 32" fill="none" xmlns="http://www.w3.org/2000/svg">
<g id="New logo" clip-path="url(#clip0_60_480)">
<path id="Subtract" fill-rule="evenodd" clip-rule="evenodd" d="M29.1406 8.37024C28.9568 8.26429 28.7612 8.17538 28.553 8.10631C25.1619 6.97644 22.926 8.50668 21.7373 10.0418L21.6023 10.2223C21.5589 10.2824 21.5171 10.3423 21.4769 10.4018L21.3611 10.5795C21.3261 10.6357 21.2916 10.6916 21.2576 10.7473L21.0605 11.0792C20.5437 11.9734 20.1746 12.8234 19.9796 13.7325L19.8711 13.5925L19.7623 13.445L19.6098 13.2259L19.4701 13.0115L19.3431 12.8039L19.2653 12.6706L19.1931 12.542L19.0951 12.3594L19.0366 12.2457L18.9799 12.1317L18.8715 11.9023L18.7962 11.7325L18.7283 11.5715L18.4775 10.8816L18.3577 10.572L18.2654 10.3449L18.1628 10.1034L18.0497 9.84925C18.03 9.80594 18.0097 9.76218 17.9891 9.718L17.8595 9.44824C17.7694 9.2655 17.6717 9.07732 17.566 8.88611L17.4015 8.59733C16.6623 7.33871 15.5777 6.00284 14.036 5.24903C13.1784 4.8301 12.262 4.60277 11.3405 4.50916C12.2391 2.68837 13.6843 1.11046 16.2208 0.314248C16.2868 0.293518 16.3511 0.273212 16.4137 0.253334L16.7685 0.139246L17.0814 0.0356822C16.75 0.0136171 16.4159 0.00167713 16.0794 0.000167847C19.1677 0.0140132 22.0494 0.906108 24.4897 2.44055C24.7814 2.65953 25.1017 2.88539 25.4544 3.11801L25.6681 3.2573C26.1214 3.6024 26.5558 3.97118 26.9695 4.36183C27.9345 5.41301 28.7457 6.86223 29.1406 8.37024ZM23.5558 30.2495C23.5553 30.2497 23.5548 30.25 23.5543 30.2502C23.6041 30.159 23.6582 30.0628 23.7164 29.9618L23.8067 29.8066C24.6524 28.3679 24.9585 27.1647 24.9198 26.1208C24.2736 26.2108 23.6476 26.2294 23.1055 26.1288C21.4614 25.8214 19.7705 25.8283 18.4379 26.1786C18.6801 27.3801 18.4878 28.667 17.8724 29.9753C17.5015 30.7641 16.8908 31.2527 16.1592 31.5307C16.611 31.8733 17.2956 32.0593 18.2781 31.983L18.3283 31.9781C20.1946 31.7057 21.9564 31.1101 23.5558 30.2495ZM2.9195 19.687C3.0964 19.1275 3.36784 18.6073 3.75529 18.1563C4.48646 17.306 4.8811 16.4595 5.02539 15.6891C3.30948 15.8384 1.6474 15.014 1.15971 13.1494C0.632433 13.5418 0.188508 14.1099 0.0463474 14.9033L0.0392317 14.9386C0.0360548 14.9844 0.0330681 15.0302 0.0302734 15.076L0.100393 15.3511L0.148529 15.5192L0.206235 15.7052L0.274152 15.9074L0.352919 16.1242C0.366986 16.1615 0.381533 16.1993 0.396571 16.2376L0.492813 16.4729C0.915563 17.467 1.65685 18.7218 2.9195 19.687Z" fill="#971B26"/>
<g id="Group 15">
<path id="Vector" d="M4.16097 20.4433C5.64813 21.1476 7.19321 21.2073 8.72396 21.1621L9.53262 21.1313L10.0691 21.1087C11.8527 21.0377 13.587 21.041 15.1545 21.997C18.4462 24.0047 19.3039 26.9318 17.8725 29.9753C16.9636 31.9077 14.6157 32.0384 12.5775 31.6857L12.2743 31.6293L11.977 31.5667C11.9281 31.5558 11.8794 31.5446 11.8311 31.5333L11.5452 31.4631L11.2686 31.3892L11.0026 31.3124L10.7484 31.2338L10.5074 31.1544L10.2808 31.0751L10.0701 30.997L9.87642 30.9211L9.50962 30.7666C3.90643 28.2646 0 22.6269 0 16.073C0 15.7382 0.0101942 15.4058 0.0302878 15.076L0.100407 15.3511L0.148543 15.5192L0.206249 15.7052L0.274166 15.9075L0.352933 16.1243C0.367001 16.1615 0.381547 16.1993 0.396585 16.2376L0.492828 16.4729C1.03875 17.7567 2.11586 19.4751 4.16097 20.4433Z" fill="#EF403C"/>
<path id="Vector_2" d="M16.0064 0C16.3676 0 16.7261 0.0120181 17.0814 0.0356779L16.7685 0.139241L16.4138 0.25333C16.3512 0.273208 16.2868 0.293514 16.2208 0.314243C12.6194 1.44474 11.218 4.15116 10.4575 6.89113L10.3637 7.24098L10.2762 7.59048L10.1551 8.11251L10.044 8.62975L9.9405 9.13979L9.68282 10.4464L9.58617 10.9094L9.51978 11.208L9.45099 11.4977C9.43928 11.5452 9.42744 11.5923 9.41546 11.639L9.3417 11.914L9.26374 12.1783C9.12988 12.6095 8.97549 12.9933 8.78553 13.3146C6.5196 17.1437 -0.0695673 16.4745 1.17061 10.5853C1.28638 10.035 1.43885 9.51182 1.62207 9.01491C4.2245 3.67629 9.68789 0 16.0064 0Z" fill="#EF403C"/>
<path id="Vector_3" d="M21.3612 10.5795L21.477 10.4018C21.5172 10.3422 21.559 10.2823 21.6024 10.2223L21.7374 10.0418C22.926 8.50667 25.1619 6.97643 28.553 8.1063C30.064 8.6076 30.913 10.1536 31.3895 11.6816L31.4828 11.9971C31.4975 12.0495 31.5118 12.1018 31.5257 12.154L31.6042 12.4649C31.6288 12.5676 31.6518 12.6695 31.6735 12.77L31.7127 12.9594C31.9096 13.9667 32.0128 15.0077 32.0128 16.073C32.0128 22.209 28.5886 27.542 23.5543 30.2502C23.6042 30.159 23.6583 30.0628 23.7164 29.9617L23.8067 29.8066C25.4199 27.0623 25.0696 25.1751 24.1084 23.6154L23.9705 23.3998C23.9469 23.3643 23.923 23.3288 23.8988 23.2936L23.7505 23.0838L23.5963 22.8774L23.437 22.6742L23.2735 22.4738L23.1065 22.276L22.8514 21.9831L22.1605 21.2148C21.3526 20.316 20.608 19.431 20.318 18.4065C19.4123 15.2072 19.7905 13.2769 21.0605 11.0792L21.2577 10.7473C21.2916 10.6916 21.3261 10.6357 21.3612 10.5795Z" fill="#EF403C"/>
</g>
</g>
<defs>
<clipPath id="clip0_60_480">
<rect width="32.0128" height="32" fill="white"/>
</clipPath>
</defs>
</svg>
